<svg width="168" height="168" viewBox="0 0 168 168" fill="none" xmlns="http://www.w3.org/2000/svg">
<path d="M119.196 116.5H140C143.314 116.5 146 113.814 146 110.5V54.5C146 51.1863 143.314 48.5 140 48.5H123.74C122.315 48.5 120.958 47.8921 120.009 46.8289L95.6431 19.5225C93.8788 17.5452 90.8782 17.2879 88.803 18.9358L79.6948 26.1688C77.4263 27.9703 77.1585 31.3165 79.1118 33.4557L94.6686 50.4942C95.2957 51.181 94.7278 52.2768 93.8052 52.1607L35.0919 44.7671C31.7504 44.3463 28.7172 46.7576 28.3735 50.1079L27.5904 57.7438C27.2609 60.9561 29.5328 63.8529 32.731 64.2986L79.3407 70.7934C80.5189 70.9576 80.4767 72.6737 79.2919 72.7798L27.5902 77.4098C24.0594 77.726 21.571 81.0181 22.23 84.5013L23.4865 91.1427C24.0612 94.1807 26.8506 96.2845 29.9296 96.0023L76.6446 91.7201C77.8147 91.6128 78.1791 93.2616 77.0728 93.6574L37.8202 107.702C33.9694 109.08 32.5954 113.822 35.1133 117.045L39.8437 123.1C41.4307 125.131 44.1379 125.922 46.5687 125.064L87.3929 110.655C88.471 110.275 89.2405 111.709 88.3274 112.397L62.6053 131.777C59.6616 133.995 59.3947 138.317 62.0433 140.881L68.7824 147.402C70.9186 149.47 74.2464 149.661 76.6056 147.852L116.154 117.532C117.027 116.863 118.096 116.5 119.196 116.5Z" fill="#4D4C4C" stroke="white" stroke-width="5"/>
<path d="M109.91 83.879L119 86C121.338 85.2206 121.3 81.8999 118.944 81.175L110.093 78.4516C108.162 77.8576 106.66 76.3323 106.096 74.3929L99 50L89 43L95 56.5L102.015 76.765C103.25 80.3347 106.231 83.0207 109.91 83.879Z" fill="white"/>
</svg>
