<svg width="168" height="168" viewBox="0 0 168 168" fill="none" xmlns="http://www.w3.org/2000/svg">
<rect x="49.4423" y="111.398" width="53.9361" height="17.8914" rx="5.5" transform="rotate(-10.0686 49.4423 111.398)" fill="#4D4C4C" stroke="white" stroke-width="5"/>
<rect x="43.1383" y="89.6197" width="52.3203" height="17.8914" rx="5.5" transform="rotate(-7.79368 43.1383 89.6197)" fill="#4D4C4C" stroke="white" stroke-width="5"/>
<rect x="38.7612" y="69.1127" width="52.3203" height="17.8914" rx="5.5" transform="rotate(-6.35108 38.7612 69.1127)" fill="#4D4C4C" stroke="white" stroke-width="5"/>
<rect x="39.6346" y="45.5" width="56" height="20" rx="5.5" fill="#4D4C4C" stroke="white" stroke-width="5"/>
<path d="M132.135 56.2546V114C132.135 117.314 129.448 120 126.135 120H89.6346C86.3209 120 83.6346 117.314 83.6346 114V93.0317C83.6346 92.3489 83.5181 91.6711 83.29 91.0275L68.0164 47.9282C66.9585 44.943 68.403 41.6496 71.3157 40.406L78.7676 37.2242C80.5649 36.4568 82.6233 36.6128 84.2845 37.6423L103.182 49.3545C104.132 49.9428 105.226 50.2545 106.343 50.2545H126.135C129.448 50.2545 132.135 52.9408 132.135 56.2546Z" fill="#4D4C4C" stroke="white" stroke-width="5"/>
<path d="M116.635 83.5L99.6346 80" stroke="white" stroke-width="5"/>
<path d="M83.1346 88.5L95.9714 83.9898C99.0987 82.891 100.743 79.4645 99.6423 76.3376L92.1346 55" stroke="white" stroke-width="5"/>
</svg>
