<svg width="168" height="168" viewBox="0 0 168 168" fill="none" xmlns="http://www.w3.org/2000/svg">
<path d="M31.0207 37.1408L77.8499 42.5763C80.0899 42.8363 81.995 44.3304 82.7815 46.4439L89.5 64.5L92.2693 78.0005C92.9449 81.2938 90.783 84.4995 87.4765 85.1073L31.4518 95.4059C28.173 96.0086 25.0315 93.8229 24.4568 90.5391L23.0315 82.3943C22.4614 79.1364 24.6351 76.0315 27.8915 75.4526L89.5 64.5L28.2083 55.4198C24.8257 54.9186 22.5452 51.696 23.1979 48.3393L24.4392 41.9556C25.0377 38.8774 27.9057 36.7792 31.0207 37.1408Z" fill="#4D4C4C"/>
<path d="M89.5 64.5L28.2083 55.4198C24.8257 54.9186 22.5452 51.696 23.1979 48.3393L24.4392 41.9556C25.0377 38.8774 27.9057 36.7792 31.0207 37.1408L77.8499 42.5763C80.0899 42.8363 81.995 44.3304 82.7815 46.4439L89.5 64.5ZM89.5 64.5L27.8915 75.4526C24.6351 76.0315 22.4614 79.1364 23.0315 82.3943L24.4568 90.5391C25.0315 93.8229 28.173 96.0086 31.4518 95.4059L87.4765 85.1073C90.783 84.4995 92.9449 81.2938 92.2693 78.0005L89.5 64.5Z" stroke="white" stroke-width="5"/>
<path d="M146 52V108.5C146 111.814 143.314 114.5 140 114.5H103.5C100.186 114.5 97.5 111.814 97.5 108.5V88.0494C97.5 87.3551 97.3795 86.666 97.1438 86.0129L81.9355 43.8642C80.851 40.8586 82.3123 37.5303 85.259 36.2946L92.6759 33.1843C94.4498 32.4404 96.4728 32.5921 98.1159 33.5923L117.063 45.1252C118.003 45.6974 119.082 46 120.182 46H140C143.314 46 146 48.6863 146 52Z" fill="#4D4C4C" stroke="white" stroke-width="5"/>
<path d="M130.5 79.5L113.5 76" stroke="white" stroke-width="5"/>
<path d="M97 83.5L109.837 78.9898C112.964 77.891 114.608 74.4645 113.508 71.3376L106 50" stroke="white" stroke-width="5"/>
<path d="M118.703 114.561L84.9831 132.368C82.1819 133.848 78.7134 132.895 77.0615 130.192L72.391 122.549C70.564 119.559 71.6766 115.647 74.8034 114.066L108.686 96.9341C111.423 95.55 114.764 96.4536 116.431 99.0291L120.939 105.996C122.852 108.954 121.818 112.916 118.703 114.561Z" fill="#4D4C4C" stroke="white" stroke-width="5"/>
<path d="M108.703 96.5613L74.9831 114.368C72.1819 115.848 68.7134 114.895 67.0615 112.192L62.391 104.549C60.564 101.559 61.6766 97.6467 64.8034 96.0657L98.6858 78.9341C101.423 77.55 104.764 78.4536 106.431 81.0291L110.939 87.9961C112.852 90.9539 111.818 94.9162 108.703 96.5613Z" fill="#4D4C4C" stroke="white" stroke-width="5"/>
</svg>
